<mxfile host="app.diagrams.net" modified="2022-10-06T19:25:57.310Z" agent="5.0 (Windows NT 10.0; Win64; x64) AppleWebKit/537.36 (KHTML, like Gecko) Chrome/105.0.0.0 Safari/537.36" etag="VomHo_yxdNl8bruA38Qc" version="20.4.0" type="github">
  <diagram id="6sawWgEjeu06iD6EJekM" name="Page-1">
    <mxGraphModel dx="2585" dy="1371" grid="0" gridSize="10" guides="1" tooltips="1" connect="1" arrows="1" fold="1" page="1" pageScale="1" pageWidth="827" pageHeight="1169" math="0" shadow="0">
      <root>
        <mxCell id="0" />
        <mxCell id="1" parent="0" />
        <mxCell id="5s7QA5Iz82F6_0--fALQ-1" value="" style="edgeStyle=orthogonalEdgeStyle;rounded=0;orthogonalLoop=1;jettySize=auto;html=1;" edge="1" parent="1" source="5s7QA5Iz82F6_0--fALQ-2" target="5s7QA5Iz82F6_0--fALQ-5">
          <mxGeometry relative="1" as="geometry" />
        </mxCell>
        <mxCell id="5s7QA5Iz82F6_0--fALQ-2" value="" style="ellipse;whiteSpace=wrap;html=1;direction=east;fillColor=#050505;" vertex="1" parent="1">
          <mxGeometry x="360" y="30" width="30" height="30" as="geometry" />
        </mxCell>
        <mxCell id="5s7QA5Iz82F6_0--fALQ-3" value="" style="edgeStyle=orthogonalEdgeStyle;rounded=0;orthogonalLoop=1;jettySize=auto;html=1;" edge="1" parent="1" source="5s7QA5Iz82F6_0--fALQ-5" target="5s7QA5Iz82F6_0--fALQ-10">
          <mxGeometry relative="1" as="geometry" />
        </mxCell>
        <mxCell id="5s7QA5Iz82F6_0--fALQ-4" value="[user is logged in]" style="edgeLabel;html=1;align=center;verticalAlign=middle;resizable=0;points=[];" vertex="1" connectable="0" parent="5s7QA5Iz82F6_0--fALQ-3">
          <mxGeometry x="-0.25" y="-1" relative="1" as="geometry">
            <mxPoint as="offset" />
          </mxGeometry>
        </mxCell>
        <mxCell id="5s7QA5Iz82F6_0--fALQ-5" value="Open app" style="rounded=1;whiteSpace=wrap;html=1;fillColor=#FFFFFF;" vertex="1" parent="1">
          <mxGeometry x="315" y="110" width="120" height="60" as="geometry" />
        </mxCell>
        <mxCell id="5s7QA5Iz82F6_0--fALQ-21" style="edgeStyle=orthogonalEdgeStyle;rounded=0;orthogonalLoop=1;jettySize=auto;html=1;entryX=0.5;entryY=0;entryDx=0;entryDy=0;" edge="1" parent="1" source="5s7QA5Iz82F6_0--fALQ-10" target="5s7QA5Iz82F6_0--fALQ-35">
          <mxGeometry relative="1" as="geometry">
            <mxPoint x="375" y="430" as="targetPoint" />
          </mxGeometry>
        </mxCell>
        <mxCell id="5s7QA5Iz82F6_0--fALQ-22" style="edgeStyle=orthogonalEdgeStyle;rounded=0;orthogonalLoop=1;jettySize=auto;html=1;entryX=0.5;entryY=0;entryDx=0;entryDy=0;exitX=0;exitY=0.5;exitDx=0;exitDy=0;" edge="1" parent="1" source="5s7QA5Iz82F6_0--fALQ-35" target="5s7QA5Iz82F6_0--fALQ-12">
          <mxGeometry relative="1" as="geometry">
            <Array as="points">
              <mxPoint x="120" y="410" />
            </Array>
          </mxGeometry>
        </mxCell>
        <mxCell id="5s7QA5Iz82F6_0--fALQ-26" value="[user opens meals area]" style="edgeLabel;html=1;align=center;verticalAlign=middle;resizable=0;points=[];" vertex="1" connectable="0" parent="5s7QA5Iz82F6_0--fALQ-22">
          <mxGeometry x="0.746" y="-1" relative="1" as="geometry">
            <mxPoint x="1" y="-10" as="offset" />
          </mxGeometry>
        </mxCell>
        <mxCell id="5s7QA5Iz82F6_0--fALQ-23" style="edgeStyle=orthogonalEdgeStyle;rounded=0;orthogonalLoop=1;jettySize=auto;html=1;entryX=0.5;entryY=0;entryDx=0;entryDy=0;exitX=1;exitY=0.5;exitDx=0;exitDy=0;" edge="1" parent="1" source="5s7QA5Iz82F6_0--fALQ-35" target="5s7QA5Iz82F6_0--fALQ-16">
          <mxGeometry relative="1" as="geometry">
            <Array as="points">
              <mxPoint x="640" y="410" />
            </Array>
          </mxGeometry>
        </mxCell>
        <mxCell id="5s7QA5Iz82F6_0--fALQ-28" value="[user opens wellbeing area]" style="edgeLabel;html=1;align=center;verticalAlign=middle;resizable=0;points=[];" vertex="1" connectable="0" parent="5s7QA5Iz82F6_0--fALQ-23">
          <mxGeometry x="0.746" y="-1" relative="1" as="geometry">
            <mxPoint x="1" y="-9" as="offset" />
          </mxGeometry>
        </mxCell>
        <mxCell id="5s7QA5Iz82F6_0--fALQ-10" value="Click on appropriate area" style="rounded=1;whiteSpace=wrap;html=1;fillColor=#FFFFFF;" vertex="1" parent="1">
          <mxGeometry x="315" y="240" width="120" height="60" as="geometry" />
        </mxCell>
        <mxCell id="5s7QA5Iz82F6_0--fALQ-30" value="" style="edgeStyle=orthogonalEdgeStyle;rounded=0;orthogonalLoop=1;jettySize=auto;html=1;" edge="1" parent="1" source="5s7QA5Iz82F6_0--fALQ-12" target="5s7QA5Iz82F6_0--fALQ-29">
          <mxGeometry relative="1" as="geometry" />
        </mxCell>
        <mxCell id="5s7QA5Iz82F6_0--fALQ-12" value="Display meal items" style="rounded=1;whiteSpace=wrap;html=1;fillColor=#FFFFFF;" vertex="1" parent="1">
          <mxGeometry x="60" y="510" width="120" height="60" as="geometry" />
        </mxCell>
        <mxCell id="5s7QA5Iz82F6_0--fALQ-60" style="edgeStyle=orthogonalEdgeStyle;rounded=0;orthogonalLoop=1;jettySize=auto;html=1;entryX=0.5;entryY=0;entryDx=0;entryDy=0;" edge="1" parent="1" source="5s7QA5Iz82F6_0--fALQ-16" target="5s7QA5Iz82F6_0--fALQ-57">
          <mxGeometry relative="1" as="geometry" />
        </mxCell>
        <mxCell id="5s7QA5Iz82F6_0--fALQ-16" value="Display wellbeing items" style="rounded=1;whiteSpace=wrap;html=1;fillColor=#FFFFFF;" vertex="1" parent="1">
          <mxGeometry x="580" y="510" width="120" height="60" as="geometry" />
        </mxCell>
        <mxCell id="5s7QA5Iz82F6_0--fALQ-52" style="edgeStyle=orthogonalEdgeStyle;rounded=0;orthogonalLoop=1;jettySize=auto;html=1;" edge="1" parent="1" source="5s7QA5Iz82F6_0--fALQ-24">
          <mxGeometry relative="1" as="geometry">
            <mxPoint x="300" y="770" as="targetPoint" />
          </mxGeometry>
        </mxCell>
        <mxCell id="5s7QA5Iz82F6_0--fALQ-24" value="Display exercise items" style="rounded=1;whiteSpace=wrap;html=1;fillColor=#FFFFFF;" vertex="1" parent="1">
          <mxGeometry x="240" y="620" width="120" height="60" as="geometry" />
        </mxCell>
        <mxCell id="5s7QA5Iz82F6_0--fALQ-32" value="" style="edgeStyle=orthogonalEdgeStyle;rounded=0;orthogonalLoop=1;jettySize=auto;html=1;" edge="1" parent="1" source="5s7QA5Iz82F6_0--fALQ-29" target="5s7QA5Iz82F6_0--fALQ-31">
          <mxGeometry relative="1" as="geometry" />
        </mxCell>
        <mxCell id="5s7QA5Iz82F6_0--fALQ-29" value="Select option to add a meal" style="rounded=1;whiteSpace=wrap;html=1;fillColor=#FFFFFF;" vertex="1" parent="1">
          <mxGeometry x="60" y="610" width="120" height="60" as="geometry" />
        </mxCell>
        <mxCell id="5s7QA5Iz82F6_0--fALQ-34" value="" style="edgeStyle=orthogonalEdgeStyle;rounded=0;orthogonalLoop=1;jettySize=auto;html=1;" edge="1" parent="1" source="5s7QA5Iz82F6_0--fALQ-31" target="5s7QA5Iz82F6_0--fALQ-33">
          <mxGeometry relative="1" as="geometry" />
        </mxCell>
        <mxCell id="5s7QA5Iz82F6_0--fALQ-31" value="Enter ingredients for meal" style="rounded=1;whiteSpace=wrap;html=1;fillColor=#FFFFFF;" vertex="1" parent="1">
          <mxGeometry x="60" y="710" width="120" height="60" as="geometry" />
        </mxCell>
        <mxCell id="5s7QA5Iz82F6_0--fALQ-67" style="edgeStyle=orthogonalEdgeStyle;rounded=0;orthogonalLoop=1;jettySize=auto;html=1;entryX=0;entryY=0.5;entryDx=0;entryDy=0;" edge="1" parent="1" source="5s7QA5Iz82F6_0--fALQ-33" target="5s7QA5Iz82F6_0--fALQ-65">
          <mxGeometry relative="1" as="geometry">
            <Array as="points">
              <mxPoint x="120" y="1125" />
            </Array>
          </mxGeometry>
        </mxCell>
        <mxCell id="5s7QA5Iz82F6_0--fALQ-33" value="Confirm selection and display new item" style="rounded=1;whiteSpace=wrap;html=1;fillColor=#FFFFFF;" vertex="1" parent="1">
          <mxGeometry x="60" y="820" width="120" height="60" as="geometry" />
        </mxCell>
        <mxCell id="5s7QA5Iz82F6_0--fALQ-46" style="edgeStyle=orthogonalEdgeStyle;rounded=0;orthogonalLoop=1;jettySize=auto;html=1;exitX=0.5;exitY=1;exitDx=0;exitDy=0;" edge="1" parent="1" source="5s7QA5Iz82F6_0--fALQ-35">
          <mxGeometry relative="1" as="geometry">
            <mxPoint x="375" y="455" as="sourcePoint" />
            <mxPoint x="375" y="530" as="targetPoint" />
            <Array as="points">
              <mxPoint x="375" y="520" />
              <mxPoint x="375" y="520" />
            </Array>
          </mxGeometry>
        </mxCell>
        <mxCell id="5s7QA5Iz82F6_0--fALQ-47" value="[user opens exercise area]" style="edgeLabel;html=1;align=center;verticalAlign=middle;resizable=0;points=[];" vertex="1" connectable="0" parent="5s7QA5Iz82F6_0--fALQ-46">
          <mxGeometry x="-0.602" y="-1" relative="1" as="geometry">
            <mxPoint x="1" y="14" as="offset" />
          </mxGeometry>
        </mxCell>
        <mxCell id="5s7QA5Iz82F6_0--fALQ-35" value="" style="rhombus;whiteSpace=wrap;html=1;" vertex="1" parent="1">
          <mxGeometry x="335" y="370" width="80" height="80" as="geometry" />
        </mxCell>
        <mxCell id="5s7QA5Iz82F6_0--fALQ-41" value="" style="edgeStyle=orthogonalEdgeStyle;rounded=0;orthogonalLoop=1;jettySize=auto;html=1;" edge="1" parent="1" source="5s7QA5Iz82F6_0--fALQ-38" target="5s7QA5Iz82F6_0--fALQ-40">
          <mxGeometry relative="1" as="geometry" />
        </mxCell>
        <mxCell id="5s7QA5Iz82F6_0--fALQ-38" value="Select option to add an exercise" style="rounded=1;whiteSpace=wrap;html=1;fillColor=#FFFFFF;" vertex="1" parent="1">
          <mxGeometry x="315" y="820" width="120" height="60" as="geometry" />
        </mxCell>
        <mxCell id="5s7QA5Iz82F6_0--fALQ-56" style="edgeStyle=orthogonalEdgeStyle;rounded=0;orthogonalLoop=1;jettySize=auto;html=1;entryX=0.5;entryY=0;entryDx=0;entryDy=0;" edge="1" parent="1" source="5s7QA5Iz82F6_0--fALQ-40" target="5s7QA5Iz82F6_0--fALQ-55">
          <mxGeometry relative="1" as="geometry" />
        </mxCell>
        <mxCell id="5s7QA5Iz82F6_0--fALQ-40" value="Enter information for exercise" style="rounded=1;whiteSpace=wrap;html=1;fillColor=#FFFFFF;" vertex="1" parent="1">
          <mxGeometry x="315" y="920" width="120" height="60" as="geometry" />
        </mxCell>
        <mxCell id="5s7QA5Iz82F6_0--fALQ-50" value="" style="edgeStyle=orthogonalEdgeStyle;rounded=0;orthogonalLoop=1;jettySize=auto;html=1;" edge="1" parent="1" source="5s7QA5Iz82F6_0--fALQ-43" target="5s7QA5Iz82F6_0--fALQ-44">
          <mxGeometry relative="1" as="geometry" />
        </mxCell>
        <mxCell id="5s7QA5Iz82F6_0--fALQ-43" value="Connect to smart device" style="rounded=1;whiteSpace=wrap;html=1;fillColor=#FFFFFF;" vertex="1" parent="1">
          <mxGeometry x="410" y="570" width="120" height="60" as="geometry" />
        </mxCell>
        <mxCell id="5s7QA5Iz82F6_0--fALQ-53" style="edgeStyle=orthogonalEdgeStyle;rounded=0;orthogonalLoop=1;jettySize=auto;html=1;" edge="1" parent="1" source="5s7QA5Iz82F6_0--fALQ-44">
          <mxGeometry relative="1" as="geometry">
            <mxPoint x="470" y="770" as="targetPoint" />
          </mxGeometry>
        </mxCell>
        <mxCell id="5s7QA5Iz82F6_0--fALQ-44" value="Add missing exercises" style="rounded=1;whiteSpace=wrap;html=1;fillColor=#FFFFFF;" vertex="1" parent="1">
          <mxGeometry x="410" y="670" width="120" height="60" as="geometry" />
        </mxCell>
        <mxCell id="5s7QA5Iz82F6_0--fALQ-45" value="" style="endArrow=none;html=1;rounded=0;" edge="1" parent="1">
          <mxGeometry width="50" height="50" relative="1" as="geometry">
            <mxPoint x="240" y="530" as="sourcePoint" />
            <mxPoint x="530" y="530" as="targetPoint" />
          </mxGeometry>
        </mxCell>
        <mxCell id="5s7QA5Iz82F6_0--fALQ-48" value="" style="endArrow=classic;html=1;rounded=0;entryX=0.5;entryY=0;entryDx=0;entryDy=0;" edge="1" parent="1" target="5s7QA5Iz82F6_0--fALQ-24">
          <mxGeometry width="50" height="50" relative="1" as="geometry">
            <mxPoint x="300" y="530" as="sourcePoint" />
            <mxPoint x="430" y="570" as="targetPoint" />
          </mxGeometry>
        </mxCell>
        <mxCell id="5s7QA5Iz82F6_0--fALQ-49" value="" style="endArrow=classic;html=1;rounded=0;entryX=0.5;entryY=0;entryDx=0;entryDy=0;" edge="1" parent="1" target="5s7QA5Iz82F6_0--fALQ-43">
          <mxGeometry width="50" height="50" relative="1" as="geometry">
            <mxPoint x="470" y="530" as="sourcePoint" />
            <mxPoint x="310" y="570" as="targetPoint" />
          </mxGeometry>
        </mxCell>
        <mxCell id="5s7QA5Iz82F6_0--fALQ-51" value="" style="endArrow=none;html=1;rounded=0;" edge="1" parent="1">
          <mxGeometry width="50" height="50" relative="1" as="geometry">
            <mxPoint x="245" y="770" as="sourcePoint" />
            <mxPoint x="535" y="770" as="targetPoint" />
          </mxGeometry>
        </mxCell>
        <mxCell id="5s7QA5Iz82F6_0--fALQ-54" value="" style="endArrow=classic;html=1;rounded=0;entryX=0.5;entryY=0;entryDx=0;entryDy=0;" edge="1" parent="1" target="5s7QA5Iz82F6_0--fALQ-38">
          <mxGeometry width="50" height="50" relative="1" as="geometry">
            <mxPoint x="375" y="770" as="sourcePoint" />
            <mxPoint x="400" y="800" as="targetPoint" />
          </mxGeometry>
        </mxCell>
        <mxCell id="5s7QA5Iz82F6_0--fALQ-66" value="" style="edgeStyle=orthogonalEdgeStyle;rounded=0;orthogonalLoop=1;jettySize=auto;html=1;" edge="1" parent="1" source="5s7QA5Iz82F6_0--fALQ-55" target="5s7QA5Iz82F6_0--fALQ-65">
          <mxGeometry relative="1" as="geometry" />
        </mxCell>
        <mxCell id="5s7QA5Iz82F6_0--fALQ-55" value="Confirm selection and display new item" style="rounded=1;whiteSpace=wrap;html=1;fillColor=#FFFFFF;" vertex="1" parent="1">
          <mxGeometry x="315" y="1010" width="120" height="60" as="geometry" />
        </mxCell>
        <mxCell id="5s7QA5Iz82F6_0--fALQ-64" style="edgeStyle=orthogonalEdgeStyle;rounded=0;orthogonalLoop=1;jettySize=auto;html=1;entryX=0.5;entryY=0;entryDx=0;entryDy=0;" edge="1" parent="1" source="5s7QA5Iz82F6_0--fALQ-57" target="5s7QA5Iz82F6_0--fALQ-58">
          <mxGeometry relative="1" as="geometry" />
        </mxCell>
        <mxCell id="5s7QA5Iz82F6_0--fALQ-57" value="Select option to take part in wellbeing quiz" style="rounded=1;whiteSpace=wrap;html=1;fillColor=#FFFFFF;" vertex="1" parent="1">
          <mxGeometry x="580" y="600" width="120" height="60" as="geometry" />
        </mxCell>
        <mxCell id="5s7QA5Iz82F6_0--fALQ-63" style="edgeStyle=orthogonalEdgeStyle;rounded=0;orthogonalLoop=1;jettySize=auto;html=1;entryX=0.5;entryY=0;entryDx=0;entryDy=0;" edge="1" parent="1" source="5s7QA5Iz82F6_0--fALQ-58" target="5s7QA5Iz82F6_0--fALQ-59">
          <mxGeometry relative="1" as="geometry">
            <mxPoint x="640" y="790" as="targetPoint" />
          </mxGeometry>
        </mxCell>
        <mxCell id="5s7QA5Iz82F6_0--fALQ-58" value="Complete wellbeing quiz" style="rounded=1;whiteSpace=wrap;html=1;fillColor=#FFFFFF;" vertex="1" parent="1">
          <mxGeometry x="580" y="710" width="120" height="60" as="geometry" />
        </mxCell>
        <mxCell id="5s7QA5Iz82F6_0--fALQ-62" value="" style="edgeStyle=orthogonalEdgeStyle;rounded=0;orthogonalLoop=1;jettySize=auto;html=1;" edge="1" parent="1" source="5s7QA5Iz82F6_0--fALQ-59" target="5s7QA5Iz82F6_0--fALQ-61">
          <mxGeometry relative="1" as="geometry" />
        </mxCell>
        <mxCell id="5s7QA5Iz82F6_0--fALQ-59" value="Display feedback" style="rounded=1;whiteSpace=wrap;html=1;fillColor=#FFFFFF;" vertex="1" parent="1">
          <mxGeometry x="580" y="820" width="120" height="60" as="geometry" />
        </mxCell>
        <mxCell id="5s7QA5Iz82F6_0--fALQ-68" style="edgeStyle=orthogonalEdgeStyle;rounded=0;orthogonalLoop=1;jettySize=auto;html=1;entryX=1;entryY=0.5;entryDx=0;entryDy=0;" edge="1" parent="1" source="5s7QA5Iz82F6_0--fALQ-61" target="5s7QA5Iz82F6_0--fALQ-65">
          <mxGeometry relative="1" as="geometry">
            <Array as="points">
              <mxPoint x="640" y="1125" />
            </Array>
          </mxGeometry>
        </mxCell>
        <mxCell id="5s7QA5Iz82F6_0--fALQ-61" value="Display wellbeing items" style="rounded=1;whiteSpace=wrap;html=1;fillColor=#FFFFFF;" vertex="1" parent="1">
          <mxGeometry x="580" y="920" width="120" height="60" as="geometry" />
        </mxCell>
        <mxCell id="5s7QA5Iz82F6_0--fALQ-65" value="" style="ellipse;whiteSpace=wrap;html=1;direction=east;fillColor=#050505;" vertex="1" parent="1">
          <mxGeometry x="360" y="1110" width="30" height="30" as="geometry" />
        </mxCell>
      </root>
    </mxGraphModel>
  </diagram>
</mxfile>
